<svg xmlns="http://www.w3.org/2000/svg" viewBox="0 0 2048 517" role="img" aria-labelledby="vl-title vl-desc">
<title id="vl-title">VintageLeague Logo</title>
<desc id="vl-desc">VintageLeague logo with green VL monogram, divider, wordmark and Sports Collectibles subtitle.</desc>

<style><![CDATA[

  .vl-accent { fill: #1DAF52; }
  .vl-word { fill: #F5F1E8; }
  .vl-sub { fill: #7E8798; }
  .vl-divider { fill: #1DAF52; opacity: .72; }

]]></style>
<g id="vl-mark" aria-hidden="true">

  <path class="vl-accent" d="M40 79 L182 326 L200 296 L94 113 L142 113 L223 254 L240 224 L157 78 Z"/>
  <path class="vl-accent" d="M396 79 L276 80 L234 154 L251 185 L297 110 L342 112 L182 393 L343 392 L394 299 L302 299 L286 330 L342 331 L323 363 L233 360 Z"/>
</g>
<rect class="vl-divider" x="487" y="26" width="4" height="419" rx="2"/>
<g id="vintageleague-wordmark" class="vl-word" aria-hidden="true" transform="translate(590 282) scale(0.202 -0.260)">
  <path d="M551.0 714 374.0 0H175.0L0.0 714H178.0L246.0 362Q251.0 339 257.0 304.5Q263.0 270 268.0 236.5Q273.0 203 275.0 181Q278.0 203 283.0 236.0Q288.0 269 294.0 303.5Q300.0 338 304.0 361L373.0 714ZM876.0 0H575.0V91L640.0 126V588L575.0 623V714H876.0V623L811.0 588V126L876.0 91ZM1486.0 0H1287.0L1111.0 444H1107.0Q1112.0 385 1113.5 339.5Q1115.0 294 1115.0 263V0H956.0V714H1154.0L1329.0 282H1333.0Q1330.0 336 1328.0 379.5Q1326.0 423 1326.0 455V714H1486.0ZM1853.0 0H1683.0V567H1559.0V714H1977.0V567H1853.0ZM2376.0 0 2352.0 139H2203.0L2179.0 0H1994.0L2163.0 714H2388.0L2559.0 0ZM2299.0 445Q2292.0 485 2287.0 522.0Q2282.0 559 2278.0 589Q2275.0 561 2269.0 524.0Q2263.0 487 2256.0 447L2228.0 285H2326.0ZM2844.0 418H3090.0V33Q2982.0 -10 2864.0 -10Q2736.0 -10 2666.0 86.0Q2596.0 182 2596.0 359Q2596.0 474 2632.0 555.5Q2668.0 637 2735.5 680.5Q2803.0 724 2897.0 724Q2952.0 724 2998.5 711.5Q3045.0 699 3079.0 679L3033.0 540Q2975.0 578 2903.0 578Q2839.0 578 2806.5 520.0Q2774.0 462 2774.0 354Q2774.0 248 2799.5 192.5Q2825.0 137 2874.0 137Q2898.0 137 2922.0 145V276H2844.0ZM3531.0 0H3193.0V714H3531.0V570H3364.0V441H3518.0V297H3364.0V146H3531.0ZM3795.0 0V714H3966.0V146H4145.0V0ZM4551.0 0H4213.0V714H4551.0V570H4384.0V441H4538.0V297H4384.0V146H4551.0ZM4971.0 0 4947.0 139H4798.0L4774.0 0H4589.0L4758.0 714H4983.0L5154.0 0ZM4894.0 445Q4887.0 485 4882.0 522.0Q4877.0 559 4873.0 589Q4870.0 561 4864.0 524.0Q4858.0 487 4851.0 447L4823.0 285H4921.0ZM5439.0 418H5685.0V33Q5577.0 -10 5459.0 -10Q5331.0 -10 5261.0 86.0Q5191.0 182 5191.0 359Q5191.0 474 5227.0 555.5Q5263.0 637 5330.5 680.5Q5398.0 724 5492.0 724Q5547.0 724 5593.5 711.5Q5640.0 699 5674.0 679L5628.0 540Q5570.0 578 5498.0 578Q5434.0 578 5401.5 520.0Q5369.0 462 5369.0 354Q5369.0 248 5394.5 192.5Q5420.0 137 5469.0 137Q5493.0 137 5517.0 145V276H5439.0ZM6255.0 242Q6255.0 118 6194.0 54.0Q6133.0 -10 6018.0 -10Q5906.0 -10 5846.0 52.0Q5786.0 114 5786.0 238V714H5957.0V246Q5957.0 188 5973.0 163.5Q5989.0 139 6020.0 139Q6054.0 139 6069.0 163.0Q6084.0 187 6084.0 247V714H6255.0ZM6701.0 0H6363.0V714H6701.0V570H6534.0V441H6688.0V297H6534.0V146H6701.0Z"/>
</g>
<g id="sports-collectibles" class="vl-sub" aria-hidden="true" transform="translate(594 389) scale(0.055 -0.072)">
  <path d="M459.0 202Q459.0 106 398.5 48.0Q338.0 -10 223.0 -10Q169.0 -10 124.5 0.0Q80.0 10 38.0 32V172Q84.0 149 133.0 132.5Q182.0 116 225.0 116Q267.0 116 287.0 137.5Q307.0 159 307.0 192Q307.0 230 280.5 254.5Q254.0 279 194.0 309Q153.0 329 119.0 354.5Q85.0 380 64.0 420.0Q43.0 460 43.0 522Q43.0 616 104.0 670.0Q165.0 724 268.0 724Q321.0 724 368.0 711.5Q415.0 699 458.0 676L412.0 557Q330.0 598 267.0 598Q231.0 598 213.0 578.5Q195.0 559 195.0 527Q195.0 502 206.0 484.5Q217.0 467 243.0 450.5Q269.0 434 312.0 411Q383.0 373 421.0 327.0Q459.0 281 459.0 202ZM1609.1818181818182 714Q1729.1818181818182 714 1787.1818181818182 655.5Q1845.1818181818182 597 1845.1818181818182 492Q1845.1818181818182 426 1821.1818181818182 372.0Q1797.1818181818182 318 1744.1818181818182 286.0Q1691.1818181818182 254 1603.1818181818182 254H1555.1818181818182V0H1401.1818181818182V714ZM1602.1818181818182 593H1555.1818181818182V375H1589.1818181818182Q1636.1818181818182 375 1664.1818181818182 401.5Q1692.1818181818182 428 1692.1818181818182 488Q1692.1818181818182 593 1602.1818181818182 593ZM3358.3636363636365 358Q3358.3636363636365 246 3326.8636363636365 163.5Q3295.3636363636365 81 3229.8636363636365 35.5Q3164.3636363636365 -10 3062.3636363636365 -10Q2961.3636363636365 -10 2895.8636363636365 35.5Q2830.3636363636365 81 2798.3636363636365 164.0Q2766.3636363636365 247 2766.3636363636365 359Q2766.3636363636365 530 2839.3636363636365 627.5Q2912.3636363636365 725 3063.3636363636365 725Q3165.3636363636365 725 3230.3636363636365 680.0Q3295.3636363636365 635 3326.8636363636365 552.5Q3358.3636363636365 470 3358.3636363636365 358ZM2926.3636363636365 358Q2926.3636363636365 242 2959.3636363636365 178.5Q2992.3636363636365 115 3062.3636363636365 115Q3134.3636363636365 115 3166.3636363636365 178.0Q3198.3636363636365 241 3198.3636363636365 358Q3198.3636363636365 475 3166.3636363636365 538.5Q3134.3636363636365 602 3063.3636363636365 602Q2991.3636363636365 602 2958.8636363636365 538.0Q2926.3636363636365 474 2926.3636363636365 358ZM4509.545454545455 714Q4764.545454545455 714 4764.545454545455 503Q4764.545454545455 432 4734.045454545455 385.5Q4703.545454545455 339 4652.545454545455 312L4829.545454545455 0H4659.545454545455L4522.545454545455 276H4470.545454545455V0H4316.545454545455V714ZM4504.545454545455 593H4470.545454545455V394H4505.545454545455Q4609.545454545455 394 4609.545454545455 497Q4609.545454545455 548 4584.045454545455 570.5Q4558.545454545455 593 4504.545454545455 593ZM5990.727272727273 0H5838.727272727273V591H5681.727272727273V714H6147.727272727273V591H5990.727272727273ZM7463.909090909091 202Q7463.909090909091 106 7403.409090909091 48.0Q7342.909090909091 -10 7227.909090909091 -10Q7173.909090909091 -10 7129.409090909091 0.0Q7084.909090909091 10 7042.909090909091 32V172Q7088.909090909091 149 7137.909090909091 132.5Q7186.909090909091 116 7229.909090909091 116Q7271.909090909091 116 7291.909090909091 137.5Q7311.909090909091 159 7311.909090909091 192Q7311.909090909091 230 7285.409090909091 254.5Q7258.909090909091 279 7198.909090909091 309Q7157.909090909091 329 7123.909090909091 354.5Q7089.909090909091 380 7068.909090909091 420.0Q7047.909090909091 460 7047.909090909091 522Q7047.909090909091 616 7108.909090909091 670.0Q7169.909090909091 724 7272.909090909091 724Q7325.909090909091 724 7372.909090909091 711.5Q7419.909090909091 699 7462.909090909091 676L7416.909090909091 557Q7334.909090909091 598 7271.909090909091 598Q7235.909090909091 598 7217.909090909091 578.5Q7199.909090909091 559 7199.909090909091 527Q7199.909090909091 502 7210.909090909091 484.5Q7221.909090909091 467 7247.909090909091 450.5Q7273.909090909091 434 7316.909090909091 411Q7387.909090909091 373 7425.909090909091 327.0Q7463.909090909091 281 7463.909090909091 202ZM9735.272727272728 601Q9667.272727272728 601 9631.272727272728 533.5Q9595.272727272728 466 9595.272727272728 355Q9595.272727272728 239 9631.272727272728 176.0Q9667.272727272728 113 9740.272727272728 113Q9779.272727272728 113 9816.772727272728 123.5Q9854.272727272728 134 9893.272727272728 151V26Q9816.272727272728 -10 9723.272727272728 -10Q9626.272727272728 -10 9563.272727272728 34.5Q9500.272727272728 79 9468.772727272728 161.0Q9437.272727272728 243 9437.272727272728 356Q9437.272727272728 463 9471.772727272728 546.5Q9506.272727272728 630 9571.772727272728 677.0Q9637.272727272728 724 9732.272727272728 724Q9778.272727272728 724 9828.272727272728 711.5Q9878.272727272728 699 9918.272727272728 676L9871.272727272728 557Q9838.272727272728 575 9804.772727272728 588.0Q9771.272727272728 601 9735.272727272728 601ZM11423.454545454546 358Q11423.454545454546 246 11391.954545454546 163.5Q11360.454545454546 81 11294.954545454546 35.5Q11229.454545454546 -10 11127.454545454546 -10Q11026.454545454546 -10 10960.954545454546 35.5Q10895.454545454546 81 10863.454545454546 164.0Q10831.454545454546 247 10831.454545454546 359Q10831.454545454546 530 10904.454545454546 627.5Q10977.454545454546 725 11128.454545454546 725Q11230.454545454546 725 11295.454545454546 680.0Q11360.454545454546 635 11391.954545454546 552.5Q11423.454545454546 470 11423.454545454546 358ZM10991.454545454546 358Q10991.454545454546 242 11024.454545454546 178.5Q11057.454545454546 115 11127.454545454546 115Q11199.454545454546 115 11231.454545454546 178.0Q11263.454545454546 241 11263.454545454546 358Q11263.454545454546 475 11231.454545454546 538.5Q11199.454545454546 602 11128.454545454546 602Q11056.454545454546 602 11023.954545454546 538.0Q10991.454545454546 474 10991.454545454546 358ZM12381.636363636364 0V714H12535.636363636364V123H12770.636363636364V0ZM13706.818181818182 0V714H13860.818181818182V123H14095.818181818182V0ZM15396.0 0H15032.0V714H15396.0V593H15186.0V432H15381.0V310H15186.0V123H15396.0ZM16626.181818181816 601Q16558.181818181816 601 16522.181818181816 533.5Q16486.181818181816 466 16486.181818181816 355Q16486.181818181816 239 16522.181818181816 176.0Q16558.181818181816 113 16631.181818181816 113Q16670.181818181816 113 16707.681818181816 123.5Q16745.181818181816 134 16784.181818181816 151V26Q16707.181818181816 -10 16614.181818181816 -10Q16517.181818181816 -10 16454.181818181816 34.5Q16391.181818181816 79 16359.681818181816 161.0Q16328.181818181818 243 16328.181818181818 356Q16328.181818181818 463 16362.681818181816 546.5Q16397.181818181816 630 16462.681818181816 677.0Q16528.181818181816 724 16623.181818181816 724Q16669.181818181816 724 16719.181818181816 711.5Q16769.181818181816 699 16809.181818181816 676L16762.181818181816 557Q16729.181818181816 575 16695.681818181816 588.0Q16662.181818181816 601 16626.181818181816 601ZM18002.363636363636 0H17850.363636363636V591H17693.363636363636V714H18159.363636363636V591H18002.363636363636ZM19351.545454545456 0H19046.545454545456V82L19122.545454545456 117V597L19046.545454545456 632V714H19351.545454545456V632L19275.545454545456 597V117L19351.545454545456 82ZM20498.727272727276 714Q20626.727272727276 714 20688.227272727276 672.5Q20749.727272727276 631 20749.727272727276 535Q20749.727272727276 473 20721.727272727276 431.0Q20693.727272727276 389 20649.727272727276 379V374Q20698.727272727276 361 20731.227272727276 323.0Q20763.727272727276 285 20763.727272727276 207Q20763.727272727276 110 20700.727272727276 55.0Q20637.727272727276 0 20528.727272727276 0H20290.727272727276V714ZM20504.727272727276 429Q20552.727272727276 429 20573.227272727276 451.0Q20593.727272727276 473 20593.727272727276 515Q20593.727272727276 594 20500.727272727276 594H20444.727272727276V429ZM20444.727272727276 313V121H20514.727272727276Q20563.727272727276 121 20585.227272727276 147.5Q20606.727272727276 174 20606.727272727276 221Q20606.727272727276 263 20584.727272727276 288.0Q20562.727272727276 313 20510.727272727276 313ZM21718.909090909096 0V714H21872.909090909096V123H22107.909090909096V0ZM23408.090909090915 0H23044.090909090915V714H23408.090909090915V593H23198.090909090915V432H23393.090909090915V310H23198.090909090915V123H23408.090909090915ZM24752.272727272735 202Q24752.272727272735 106 24691.772727272735 48.0Q24631.272727272735 -10 24516.272727272735 -10Q24462.272727272735 -10 24417.772727272735 0.0Q24373.272727272735 10 24331.272727272735 32V172Q24377.272727272735 149 24426.272727272735 132.5Q24475.272727272735 116 24518.272727272735 116Q24560.272727272735 116 24580.272727272735 137.5Q24600.272727272735 159 24600.272727272735 192Q24600.272727272735 230 24573.772727272735 254.5Q24547.272727272735 279 24487.272727272735 309Q24446.272727272735 329 24412.272727272735 354.5Q24378.272727272735 380 24357.272727272735 420.0Q24336.272727272735 460 24336.272727272735 522Q24336.272727272735 616 24397.272727272735 670.0Q24458.272727272735 724 24561.272727272735 724Q24614.272727272735 724 24661.272727272735 711.5Q24708.272727272735 699 24751.272727272735 676L24705.272727272735 557Q24623.272727272735 598 24560.272727272735 598Q24524.272727272735 598 24506.272727272735 578.5Q24488.272727272735 559 24488.272727272735 527Q24488.272727272735 502 24499.272727272735 484.5Q24510.272727272735 467 24536.272727272735 450.5Q24562.272727272735 434 24605.272727272735 411Q24676.272727272735 373 24714.272727272735 327.0Q24752.272727272735 281 24752.272727272735 202Z"/>
</g>
</svg>
